<?xml version="1.0" standalone="no"?>
<!DOCTYPE svg PUBLIC "-//W3C//DTD SVG 20010904//EN"
        "http://www.w3.org/TR/2001/REC-SVG-20010904/DTD/svg10.dtd">
<svg version="1.0" xmlns="http://www.w3.org/2000/svg"
     width="892.000000pt" height="189.000000pt" viewBox="0 0 892.000000 189.000000"
     preserveAspectRatio="xMidYMid meet">

    <g transform="translate(0.000000,189.000000) scale(0.100000,-0.100000)"
       fill="url(#blueGradient)" stroke="none">
        <defs>
            <linearGradient id="blueGradient" x1="0%" y1="0%" x2="100%" y2="0%">
                <stop offset="0%" style="stop-color:blue;stop-opacity:1"/>
                <stop offset="100%" style="stop-color:lightblue;stop-opacity:1"/>
            </linearGradient>
        </defs>
        <path d="M2010 920 c0 -580 3 -880 10 -880 7 0 10 300 10 880 0 580 -3 880
-10 880 -7 0 -10 -300 -10 -880z"/>
        <path d="M515 1322 c-159 -96 -261 -164 -263 -175 -3 -16 25 -17 530 -15 466
3 533 5 536 18 2 10 -81 65 -261 173 -145 86 -268 157 -273 157 -5 -1 -126
-71 -269 -158z m488 -19 l212 -128 -218 -3 c-119 -1 -314 -1 -432 0 l-216 3
213 127 c117 70 217 127 221 127 5 1 104 -56 220 -126z"/>
        <path d="M7990 1400 c0 -5 14 -10 30 -10 l30 0 -2 -352 -3 -353 -30 -6 c-16
-4 34 -7 113 -8 78 0 142 3 142 7 0 5 -10 8 -22 8 -22 -1 -23 2 -26 112 -4
149 9 149 83 2 49 -99 53 -110 35 -110 -11 0 -20 -4 -20 -10 0 -6 50 -10 130
-10 80 0 130 4 130 10 0 6 -8 10 -17 10 -13 0 -43 48 -103 164 -47 91 -83 167
-80 169 71 66 118 97 147 97 18 0 33 5 33 10 0 13 -177 13 -185 1 -3 -6 15
-11 41 -13 l46 -3 -110 -92 c-61 -51 -116 -93 -122 -93 -6 0 -10 82 -10 240
l0 240 -115 0 c-70 0 -115 -4 -115 -10z"/>
        <path d="M2630 1341 c0 -6 14 -11 30 -11 l30 0 0 -325 0 -325 -30 0 c-16 0
-30 -4 -30 -10 0 -6 58 -10 155 -10 97 0 155 4 155 10 0 6 -13 10 -30 10 l-30
0 0 165 0 165 44 0 c63 0 70 -13 77 -149 8 -172 35 -206 163 -205 54 1 62 4
88 33 15 17 28 40 28 50 0 11 2 28 5 38 3 10 -4 -1 -15 -25 -16 -35 -24 -43
-42 -40 -21 3 -23 9 -25 63 -7 166 -29 218 -99 231 -45 8 -43 20 4 27 74 12
112 64 112 153 0 68 -24 109 -78 136 -44 22 -61 23 -279 26 -164 3 -233 1
-233 -7z m365 -36 c23 -22 25 -32 25 -110 0 -124 -26 -165 -104 -165 l-36 0 0
150 0 150 45 0 c35 0 52 -6 70 -25z"/>
        <path d="M4513 1343 l27 -4 0 -329 0 -329 -27 -4 c-16 -2 1 -4 37 -4 36 0 53
2 38 4 l-28 4 0 310 c0 170 2 309 4 309 2 0 79 -142 171 -315 l167 -315 69 0
69 0 0 334 0 335 28 4 c15 2 -4 4 -43 4 -44 1 -59 -2 -40 -6 l30 -6 3 -233 c1
-127 -1 -232 -6 -232 -5 0 -65 107 -133 238 l-124 237 -135 1 c-74 1 -123 -1
-107 -3z"/>
        <path d="M6238 1343 l32 -4 0 -329 0 -329 -32 -4 c-18 -3 68 -4 192 -3 214 1
227 2 272 24 66 33 92 72 96 147 2 47 -1 67 -17 93 -25 39 -73 70 -123 78 -37
6 -53 24 -23 24 28 0 92 38 111 67 25 38 25 129 1 167 -10 15 -40 38 -65 49
-43 20 -64 22 -262 23 -118 1 -200 0 -182 -3z m290 -14 c42 -14 55 -60 51
-168 -4 -76 -7 -85 -32 -107 -16 -14 -41 -24 -58 -24 l-29 0 0 155 c0 172 -2
169 68 144z m32 -334 c34 -18 50 -63 50 -145 0 -114 -36 -170 -111 -170 l-39
0 0 165 0 165 35 0 c20 0 49 -7 65 -15z"/>
        <path d="M5795 1289 c-22 -5 -57 -14 -77 -20 l-38 -10 0 -64 c0 -62 -1 -64
-27 -68 l-28 -4 28 -2 27 -1 0 -175 c0 -187 7 -222 49 -260 28 -24 146 -34
191 -15 38 16 69 58 75 102 5 32 5 32 -10 -7 -19 -48 -32 -62 -66 -70 -18 -4
-31 -1 -43 10 -14 14 -16 44 -16 215 l0 199 63 4 62 3 -62 2 -63 2 0 85 c0 93
3 89 -65 74z"/>
        <path d="M7040 1144 c-14 -3 -39 -7 -57 -10 -71 -11 -121 -90 -92 -145 17 -33
28 -39 75 -39 45 0 68 18 79 61 5 20 1 32 -15 47 -13 12 -20 29 -18 44 2 19
10 24 41 26 32 3 38 0 47 -23 6 -14 10 -67 10 -116 l0 -89 -45 0 c-76 0 -147
-20 -177 -50 -35 -36 -39 -103 -8 -143 45 -57 166 -63 209 -9 l24 29 28 -31
c26 -29 31 -31 99 -31 66 0 74 2 96 28 13 15 24 36 23 45 0 12 -3 10 -10 -6
-6 -17 -15 -22 -31 -20 -23 3 -23 7 -29 163 -6 191 -15 218 -84 252 -23 12
-129 22 -165 17z m70 -329 c0 -78 -15 -117 -44 -113 -19 3 -21 11 -24 70 -3
79 8 108 43 108 24 0 25 -3 25 -65z"/>
        <path d="M7720 1140 c-21 -5 -48 -23 -67 -46 l-33 -37 0 41 0 42 -115 0 c-70
0 -115 -4 -115 -10 0 -5 11 -10 25 -10 l25 0 0 -219 0 -220 -27 -4 c-16 -2 34
-5 110 -6 76 0 137 3 137 8 0 5 -9 7 -20 4 -19 -5 -20 0 -20 158 0 140 3 170
20 206 20 46 58 65 85 43 22 -18 22 -400 1 -400 -8 0 -18 -4 -21 -10 -4 -6 42
-10 129 -10 84 0 136 4 136 10 0 6 -11 10 -24 10 l-24 0 -4 178 c-2 146 -6
183 -21 209 -28 53 -105 80 -177 63z"/>
        <path d="M4195 1124 c-16 -8 -40 -27 -52 -42 l-22 -27 -1 38 0 37 -116 0 c-74
0 -113 -4 -109 -10 3 -5 17 -10 31 -10 l24 0 -2 -332 -3 -333 -30 -6 c-16 -4
53 -6 155 -6 105 0 157 3 120 6 l-65 6 -3 123 c-1 67 0 122 3 122 3 0 18 -8
32 -17 35 -23 126 -22 176 2 22 10 49 34 62 54 50 76 52 246 4 331 -39 69
-136 100 -204 64z m39 -46 c13 -18 16 -53 16 -174 0 -166 -9 -211 -45 -220
-36 -9 -63 12 -76 59 -15 56 -8 273 11 307 28 52 69 64 94 28z"/>
        <path d="M5277 1125 c-99 -37 -147 -111 -147 -230 0 -84 22 -137 73 -182 49
-43 98 -56 194 -52 69 4 85 8 116 32 39 30 71 81 63 100 -2 7 -5 4 -5 -5 -2
-30 -61 -87 -102 -98 -102 -28 -159 34 -159 173 l0 57 140 0 c160 0 155 -4
125 97 -25 85 -90 124 -205 122 -30 0 -72 -7 -93 -14z m118 -9 c14 -10 19 -30
23 -95 l5 -81 -58 0 -58 0 5 77 c4 64 9 80 28 95 27 22 31 22 55 4z"/>
        <path d="M3290 1120 c0 -5 14 -10 30 -10 l30 0 0 -176 c0 -142 3 -183 16 -210
39 -82 178 -95 244 -22 l27 30 7 -36 7 -36 104 0 c58 0 107 4 110 10 4 6 -7
10 -24 10 l-31 0 0 225 0 225 -110 0 c-67 0 -110 -4 -110 -10 0 -5 9 -10 19
-10 17 0 20 -11 26 -86 10 -120 2 -252 -19 -292 -13 -25 -23 -32 -47 -32 -44
0 -49 26 -49 241 l0 189 -115 0 c-70 0 -115 -4 -115 -10z"/>
        <path d="M305 1077 c-3 -7 -4 -145 -3 -307 3 -272 4 -295 21 -298 16 -3 17 17
17 307 0 273 -2 311 -15 311 -9 0 -18 -6 -20 -13z"/>
        <path d="M456 1075 c-9 -26 -7 -578 3 -594 5 -8 16 -11 25 -8 15 6 16 38 14
309 -3 270 -5 303 -19 306 -9 2 -19 -4 -23 -13z"/>
        <path d="M1077 1083 c-4 -3 -7 -141 -7 -305 0 -260 2 -299 15 -305 9 -3 18 -3
21 -1 3 4 6 432 4 606 0 13 -22 17 -33 5z"/>
        <path d="M1230 1078 c-2 -181 1 -602 4 -606 3 -2 12 -2 21 2 13 5 15 42 13
308 -3 279 -4 303 -20 306 -10 2 -18 -2 -18 -10z"/>
        <path d="M767 1053 c-4 -3 -7 -20 -7 -37 0 -25 -7 -34 -32 -46 -18 -8 -41 -30
-52 -48 -26 -46 -13 -88 41 -127 l42 -30 0 -72 c1 -40 -2 -73 -5 -73 -4 0 -22
10 -41 21 -27 17 -37 19 -46 10 -9 -10 -4 -19 21 -42 18 -16 41 -29 52 -29 15
0 19 -8 22 -37 2 -27 8 -39 21 -41 14 -3 17 4 17 32 0 31 5 38 40 56 45 23 60
45 60 90 0 42 -13 64 -55 90 -35 22 -35 22 -35 96 0 41 4 74 9 74 4 0 20 -9
34 -20 33 -26 49 -25 45 3 -2 15 -17 29 -45 42 -30 14 -42 26 -43 42 0 44 -22
67 -43 46z m-7 -173 c0 -33 -3 -60 -7 -60 -17 0 -43 36 -43 58 0 25 25 62 42
62 4 0 8 -27 8 -60z m84 -159 c23 -25 17 -70 -11 -89 l-23 -14 0 61 c0 65 6
73 34 42z"/>
        <path d="M7362 785 c0 -16 2 -22 5 -12 2 9 2 23 0 30 -3 6 -5 -1 -5 -18z"/>
        <path d="M255 419 c-4 -6 -3 -15 2 -20 5 -5 223 -8 534 -7 458 3 524 5 524 18
0 13 -66 15 -527 18 -374 1 -529 -1 -533 -9z"/>
        <path d="M178 343 c-5 -7 -7 -17 -3 -23 9 -15 1211 -14 1221 1 3 6 2 15 -3 20
-15 15 -1202 17 -1215 2z"/>
        <path d="M102 268 c-8 -8 -9 -15 -1 -25 17 -19 1351 -19 1368 0 29 36 3 37
-684 37 -501 0 -674 -3 -683 -12z"/>
    </g>
</svg>
