<svg version="1.1" id="Layer_1" xmlns="http://www.w3.org/2000/svg" xmlns:xlink="http://www.w3.org/1999/xlink" x="0px" y="0px"
	 width="100%" viewBox="0 0 500 500" enable-background="new 0 0 500 500" xml:space="preserve">
<path fill="#FBFAF9" opacity="1.000000" stroke="none" 
	d="
M248.000000,501.000000 
	C165.333359,501.000000 83.166702,501.000000 1.000044,501.000000 
	C1.000029,334.333405 1.000029,167.666779 1.000015,1.000134 
	C167.666565,1.000089 334.333130,1.000089 500.999756,1.000045 
	C500.999847,167.666519 500.999847,334.333038 500.999939,500.999786 
	C416.833344,501.000000 332.666656,501.000000 248.000000,501.000000 
M206.226349,265.965424 
	C200.770752,267.796204 199.098587,266.754639 199.043839,261.176819 
	C198.955994,252.226654 199.020294,243.274994 199.020294,234.141098 
	C194.186523,234.427841 189.806931,234.687637 186.598022,234.877991 
	C187.486328,237.626938 188.935562,240.329239 189.147018,243.125153 
	C189.635895,249.588928 189.419769,256.102509 189.696320,262.587097 
	C189.867432,266.599548 192.232285,269.260010 196.150558,269.698395 
	C200.144882,270.145264 204.552811,270.799194 207.446899,265.193542 
	C208.404907,266.490265 209.362915,267.786957 210.240997,268.975494 
	C214.287445,268.975494 218.511932,268.975494 222.309723,268.975494 
	C215.284897,257.822144 221.391495,245.376083 218.420547,234.108643 
	C213.988068,234.425537 209.627335,234.737305 204.699203,235.089630 
	C210.356308,238.354370 211.402344,257.442474 206.226349,265.965424 
M320.264679,249.038940 
	C323.056030,248.925369 325.847351,248.811798 329.573334,248.418503 
	C332.334290,248.418503 335.095276,248.418503 337.826385,248.418503 
	C337.919586,237.347443 332.723969,232.621719 322.606781,233.878571 
	C315.024750,234.820480 310.198456,240.466965 309.229858,249.528885 
	C308.181335,259.338470 311.896698,267.047272 319.319427,268.984406 
	C322.515167,269.818390 326.272949,269.695465 329.505371,268.904175 
	C334.046814,267.792480 336.837952,263.615967 336.904449,259.015564 
	C336.140625,259.945770 335.687164,260.627411 335.110382,261.180450 
	C329.144073,266.901093 321.873840,264.905762 320.032898,256.907257 
	C319.448303,254.367279 319.625305,251.652008 320.264679,249.038940 
M301.975159,252.079620 
	C301.980499,245.425949 301.995056,238.772247 301.987701,232.118591 
	C301.983276,228.135513 301.547821,223.966461 306.562836,222.264069 
	C302.492706,222.264069 298.422607,222.264069 294.352478,222.264069 
	C300.126831,223.499588 300.350708,227.752533 300.308685,232.265839 
	C300.245148,239.085144 300.290558,245.905472 299.592804,252.402908 
	C292.678955,243.943710 285.754639,235.493073 278.855011,227.022278 
	C274.381317,221.529846 270.912933,220.550934 263.095520,222.876389 
	C270.244141,223.783676 267.317871,229.251282 267.985168,233.911896 
	C267.978668,241.899704 267.933777,249.887756 267.981140,257.875244 
	C268.006531,262.161774 268.361450,266.520050 261.697388,268.688690 
	C267.508514,268.688690 271.621552,268.688690 275.734619,268.688690 
	C269.070831,267.379547 269.869293,262.269653 269.803040,257.656616 
	C269.688477,249.681442 269.595215,241.705978 270.256073,233.800995 
	C278.927277,244.637589 287.544159,255.518707 296.341278,266.252106 
	C297.393829,267.536346 299.426727,268.017090 301.546844,268.964905 
	C301.635498,268.647980 301.724152,268.331055 301.965271,267.091064 
	C301.914459,262.395752 301.863647,257.700439 301.975159,252.079620 
M26.399591,312.782562 
	C43.071632,312.782562 59.743671,312.782562 76.415710,312.782562 
	C76.413139,312.503693 76.410568,312.224854 76.407990,311.945984 
	C60.016380,311.945984 43.624767,311.945984 27.079721,311.026215 
	C27.079721,265.432495 27.079721,219.838760 27.079721,174.278168 
	C176.623581,174.278168 325.689453,174.278168 475.010284,174.278168 
	C475.010284,176.357025 475.010284,178.164368 475.010284,179.971710 
	C475.010284,220.302444 475.016510,260.633179 474.999817,300.963928 
	C474.998291,304.624939 474.849365,308.285889 473.874115,311.780945 
	C457.702423,311.780945 441.530762,311.780945 425.359070,311.780945 
	C425.951080,312.751282 426.571136,312.978424 427.191528,312.979248 
	C442.626129,312.999878 458.060852,313.011963 473.495239,312.952637 
	C474.274414,312.949646 475.051117,312.293335 475.976990,311.021759 
	C475.976990,265.095856 475.976990,219.169952 475.976990,173.274506 
	C325.703674,173.274506 175.981689,173.274506 26.006052,173.274506 
	C26.006052,178.356995 26.000916,183.164566 26.006855,187.972137 
	C26.057915,229.296417 26.110975,270.620697 26.399591,312.782562 
M239.759933,237.394028 
	C239.261124,237.593933 238.762314,237.793839 238.021057,237.133148 
	C237.409775,236.113327 236.784286,234.207321 236.189468,234.216873 
	C232.195206,234.280853 228.207489,234.751953 225.456360,234.985794 
	C226.398926,237.392883 228.031845,239.699265 228.096359,242.048691 
	C228.383789,252.515533 228.375504,262.998535 228.112656,273.466644 
	C228.049637,275.977142 226.601303,278.452881 225.885468,280.651611 
	C231.087067,280.651611 237.357071,280.651611 244.506256,280.651611 
	C237.588989,277.836456 237.488144,277.617676 238.281250,268.718689 
	C248.744720,271.249878 255.913345,268.833588 258.237518,260.514954 
	C259.779053,254.997635 260.126678,248.603256 259.001587,243.004852 
	C257.047150,233.279800 248.136887,230.814804 239.759933,237.394028 
M174.619156,269.197327 
	C178.638687,270.271057 182.557816,270.888123 185.511597,267.020203 
	C180.121582,266.421661 180.829407,261.757111 180.272110,258.646881 
	C179.103775,252.126465 176.452515,247.471207 168.435287,246.600174 
	C170.073730,245.951752 170.817230,245.632416 171.577682,245.360474 
	C178.469727,242.895859 181.937408,238.534348 181.574387,232.772018 
	C181.226456,227.249222 177.449570,223.140808 169.966614,222.519592 
	C161.130768,221.786072 152.187408,222.347427 143.290665,222.347427 
	C148.194626,223.249146 147.463226,227.101440 147.475494,230.495300 
	C147.511597,240.486145 147.414719,250.478012 147.527786,260.467682 
	C147.568497,264.063324 147.292496,267.258545 143.278198,268.679504 
	C149.730179,268.679504 156.182159,268.679504 162.634155,268.679504 
	C157.737747,267.709198 158.046417,264.080902 158.062439,260.508972 
	C158.109482,250.018661 157.942108,239.524582 158.203400,229.040588 
	C158.251968,227.092010 160.076324,223.485626 160.786118,223.557510 
	C163.503403,223.832687 167.088730,224.535492 168.564026,226.452881 
	C173.785873,233.239441 169.597015,243.728577 162.677307,245.294022 
	C164.338501,247.868835 166.598312,250.592865 167.954330,253.710037 
	C169.121201,256.392395 168.933685,259.641327 169.948257,262.419434 
	C170.803391,264.760986 172.525299,266.786041 174.619156,269.197327 
M353.151245,224.467560 
	C350.127899,224.963593 347.104553,225.459625 343.788666,226.003662 
	C344.262787,231.116913 342.968781,235.825378 343.634338,240.866882 
	C344.520874,247.581940 343.774475,254.499496 343.968719,261.323242 
	C344.118561,266.588593 346.568176,269.263824 351.230804,269.885925 
	C356.328644,270.566101 359.757172,268.278625 361.073578,263.812927 
	C359.299927,264.486481 357.204742,265.282135 355.109558,266.077820 
	C354.513397,263.817352 353.438721,261.564667 353.401855,259.295105 
	C353.217834,247.971954 353.306427,236.644363 353.151245,224.467560 
M222.707947,313.229828 
	C222.433777,312.520386 221.752670,311.660950 221.950134,311.125397 
	C223.451782,307.052612 221.273621,306.016968 217.862091,305.962677 
	C216.422119,305.939728 214.979431,306.087769 213.379272,306.165833 
	C213.379272,310.186096 213.379272,313.913483 213.379272,318.090302 
	C216.997940,317.150177 221.869904,320.600250 222.707947,313.229828 
M265.109467,311.156891 
	C264.557556,311.490112 263.586578,312.186310 263.514893,312.103546 
	C261.656372,309.957855 259.891327,307.731140 257.519714,304.784973 
	C257.519714,310.056244 257.519714,314.002441 257.519714,317.948639 
	C257.888855,317.947998 258.257996,317.947388 258.627106,317.946747 
	C258.812866,315.664307 258.998627,313.381866 259.232269,310.511139 
	C261.782928,313.476013 263.906647,315.944641 266.477325,318.932800 
	C266.477325,313.927277 266.477325,310.005402 266.477325,306.083496 
	C266.115753,306.095947 265.754211,306.108368 265.392639,306.120819 
	C265.298737,307.523529 265.204834,308.926270 265.109467,311.156891 
M236.232437,315.996094 
	C239.225113,316.364136 242.217773,316.732178 245.290100,317.110016 
	C244.065201,314.313477 242.733887,311.127136 241.259003,308.008698 
	C240.884369,307.216583 240.094376,306.163086 239.419754,306.104919 
	C238.797424,306.051208 237.800232,307.042633 237.442215,307.798279 
	C235.917191,311.017365 234.568054,314.319794 232.649643,318.761078 
	C234.408981,317.651459 235.129578,317.196991 236.232437,315.996094 
M279.696899,306.456482 
	C279.696899,310.293701 279.696899,314.130951 279.696899,317.968170 
	C280.173706,317.969696 280.650513,317.971222 281.127319,317.972748 
	C281.681702,316.551422 282.236084,315.130127 282.975189,313.235260 
	C285.093628,315.135986 286.865845,316.726074 288.638092,318.316162 
	C288.925110,318.055725 289.212128,317.795288 289.499146,317.534882 
	C288.143036,315.442749 286.786926,313.350616 285.432892,311.261688 
	C286.697845,309.540497 287.860504,307.958466 289.023163,306.376465 
	C288.723022,306.109772 288.422882,305.843079 288.122742,305.576416 
	C286.186005,307.347870 284.249237,309.119324 282.504669,310.714996 
	C281.742340,309.019165 281.070923,307.525543 279.696899,306.456482 
z"/>
<path fill="#0C0C0C" opacity="1.000000" stroke="none" 
	d="
M174.241333,269.074249 
	C172.525299,266.786041 170.803391,264.760986 169.948257,262.419434 
	C168.933685,259.641327 169.121201,256.392395 167.954330,253.710037 
	C166.598312,250.592865 164.338501,247.868835 162.677307,245.294022 
	C169.597015,243.728577 173.785873,233.239441 168.564026,226.452881 
	C167.088730,224.535492 163.503403,223.832687 160.786118,223.557510 
	C160.076324,223.485626 158.251968,227.092010 158.203400,229.040588 
	C157.942108,239.524582 158.109482,250.018661 158.062439,260.508972 
	C158.046417,264.080902 157.737747,267.709198 162.634155,268.679504 
	C156.182159,268.679504 149.730179,268.679504 143.278198,268.679504 
	C147.292496,267.258545 147.568497,264.063324 147.527786,260.467682 
	C147.414719,250.478012 147.511597,240.486145 147.475494,230.495300 
	C147.463226,227.101440 148.194626,223.249146 143.290665,222.347427 
	C152.187408,222.347427 161.130768,221.786072 169.966614,222.519592 
	C177.449570,223.140808 181.226456,227.249222 181.574387,232.772018 
	C181.937408,238.534348 178.469727,242.895859 171.577682,245.360474 
	C170.817230,245.632416 170.073730,245.951752 168.435287,246.600174 
	C176.452515,247.471207 179.103775,252.126465 180.272110,258.646881 
	C180.829407,261.757111 180.121582,266.421661 185.511597,267.020203 
	C182.557816,270.888123 178.638687,270.271057 174.241333,269.074249 
z"/>
<path fill="#10100F" opacity="1.000000" stroke="none" 
	d="
M240.035080,236.914261 
	C248.136887,230.814804 257.047150,233.279800 259.001587,243.004852 
	C260.126678,248.603256 259.779053,254.997635 258.237518,260.514954 
	C255.913345,268.833588 248.744720,271.249878 238.281250,268.718689 
	C237.488144,277.617676 237.588989,277.836456 244.506256,280.651611 
	C237.357071,280.651611 231.087067,280.651611 225.885468,280.651611 
	C226.601303,278.452881 228.049637,275.977142 228.112656,273.466644 
	C228.375504,262.998535 228.383789,252.515533 228.096359,242.048691 
	C228.031845,239.699265 226.398926,237.392883 225.456360,234.985794 
	C228.207489,234.751953 232.195206,234.280853 236.189468,234.216873 
	C236.784286,234.207321 237.409775,236.113327 238.190277,237.934021 
	C238.237259,246.790207 237.991547,254.847122 238.095398,262.899536 
	C238.116547,264.539154 239.248932,267.374451 240.225815,267.538879 
	C242.234207,267.876923 244.781906,267.246979 246.535645,266.122955 
	C247.834976,265.290222 248.754837,263.103638 248.932449,261.423828 
	C249.487701,256.172272 250.037857,250.855713 249.799896,245.600128 
	C249.453979,237.960587 247.574280,236.578506 240.035080,236.914261 
z"/>
<path fill="#080808" opacity="1.000000" stroke="none" 
	d="
M474.768860,311.946869 
	C474.849365,308.285889 474.998291,304.624939 474.999817,300.963928 
	C475.016510,260.633179 475.010284,220.302444 475.010284,179.971710 
	C475.010284,178.164368 475.010284,176.357025 475.010284,174.278168 
	C325.689453,174.278168 176.623581,174.278168 27.079721,174.278168 
	C27.079721,219.838760 27.079721,265.432495 26.889038,311.453247 
	C26.520050,311.901855 26.341743,311.923431 26.163437,311.944977 
	C26.110975,270.620697 26.057915,229.296417 26.006855,187.972137 
	C26.000916,183.164566 26.006052,178.356995 26.006052,173.274506 
	C175.981689,173.274506 325.703674,173.274506 475.976990,173.274506 
	C475.976990,219.169952 475.976990,265.095856 475.637756,311.445435 
	C475.121979,311.895020 474.945435,311.920929 474.768860,311.946869 
z"/>
<path fill="#0B0B0A" opacity="1.000000" stroke="none" 
	d="
M301.005249,268.870270 
	C299.426727,268.017090 297.393829,267.536346 296.341278,266.252106 
	C287.544159,255.518707 278.927277,244.637589 269.737915,233.629410 
	C268.868011,233.301300 268.516266,233.144775 268.164520,232.988251 
	C267.317871,229.251282 270.244141,223.783676 263.095520,222.876389 
	C270.912933,220.550934 274.381317,221.529846 278.855011,227.022278 
	C285.754639,235.493073 292.678955,243.943710 300.111389,252.665329 
	C301.024231,252.953537 301.418549,252.979340 301.812805,253.005127 
	C301.863647,257.700439 301.914459,262.395752 301.713562,267.652527 
	C301.246582,268.388916 301.094391,268.607666 301.005249,268.870270 
z"/>
<path fill="#10100F" opacity="1.000000" stroke="none" 
	d="
M319.453827,249.016953 
	C319.625305,251.652008 319.448303,254.367279 320.032898,256.907257 
	C321.873840,264.905762 329.144073,266.901093 335.110382,261.180450 
	C335.687164,260.627411 336.140625,259.945770 336.904449,259.015564 
	C336.837952,263.615967 334.046814,267.792480 329.505371,268.904175 
	C326.272949,269.695465 322.515167,269.818390 319.319427,268.984406 
	C311.896698,267.047272 308.181335,259.338470 309.229858,249.528885 
	C310.198456,240.466965 315.024750,234.820480 322.606781,233.878571 
	C332.723969,232.621719 337.919586,237.347443 337.826385,248.418503 
	C335.095276,248.418503 332.334290,248.418503 329.294769,248.166138 
	C328.852448,244.686707 328.985382,241.402145 328.376465,238.261414 
	C328.138428,237.033737 326.256317,235.328629 325.082123,235.295624 
	C323.830017,235.260452 321.736328,236.721741 321.399017,237.920532 
	C320.387054,241.517044 320.052643,245.304199 319.453827,249.016953 
z"/>
<path fill="#0B0B0A" opacity="1.000000" stroke="none" 
	d="
M353.225189,224.892944 
	C353.306427,236.644363 353.217834,247.971954 353.401855,259.295105 
	C353.438721,261.564667 354.513397,263.817352 355.109558,266.077820 
	C357.204742,265.282135 359.299927,264.486481 361.073578,263.812927 
	C359.757172,268.278625 356.328644,270.566101 351.230804,269.885925 
	C346.568176,269.263824 344.118561,266.588593 343.968719,261.323242 
	C343.774475,254.499496 344.520874,247.581940 343.634338,240.866882 
	C342.968781,235.825378 344.262787,231.116913 343.788666,226.003662 
	C347.104553,225.459625 350.127899,224.963593 353.225189,224.892944 
z"/>
<path fill="#10100F" opacity="1.000000" stroke="none" 
	d="
M206.920044,266.030731 
	C204.552811,270.799194 200.144882,270.145264 196.150558,269.698395 
	C192.232285,269.260010 189.867432,266.599548 189.696320,262.587097 
	C189.419769,256.102509 189.635895,249.588928 189.147018,243.125153 
	C188.935562,240.329239 187.486328,237.626938 186.598022,234.877991 
	C189.806931,234.687637 194.186523,234.427841 199.020294,234.141098 
	C199.020294,243.274994 198.955994,252.226654 199.043839,261.176819 
	C199.098587,266.754639 200.770752,267.796204 206.604462,266.005859 
	C206.982574,266.046295 206.920044,266.030731 206.920044,266.030731 
z"/>
<path fill="#10100F" opacity="1.000000" stroke="none" 
	d="
M206.989029,266.077881 
	C211.402344,257.442474 210.356308,238.354370 204.699203,235.089630 
	C209.627335,234.737305 213.988068,234.425537 218.420547,234.108643 
	C221.391495,245.376083 215.284897,257.822144 222.309723,268.975494 
	C218.511932,268.975494 214.287445,268.975494 210.240997,268.975494 
	C209.362915,267.786957 208.404907,266.490265 207.183472,265.612122 
	C206.920044,266.030731 206.982574,266.046295 206.989029,266.077881 
z"/>
<path fill="#F8F7F6" opacity="1.000000" stroke="none" 
	d="
M239.897507,237.154144 
	C247.574280,236.578506 249.453979,237.960587 249.799896,245.600128 
	C250.037857,250.855713 249.487701,256.172272 248.932449,261.423828 
	C248.754837,263.103638 247.834976,265.290222 246.535645,266.122955 
	C244.781906,267.246979 242.234207,267.876923 240.225815,267.538879 
	C239.248932,267.374451 238.116547,264.539154 238.095398,262.899536 
	C237.991547,254.847122 238.237259,246.790207 238.311493,238.364319 
	C238.762314,237.793839 239.261124,237.593933 239.897507,237.154144 
z"/>
<path fill="#F5F4F3" opacity="1.000000" stroke="none" 
	d="
M319.859253,249.027954 
	C320.052643,245.304199 320.387054,241.517044 321.399017,237.920532 
	C321.736328,236.721741 323.830017,235.260452 325.082123,235.295624 
	C326.256317,235.328629 328.138428,237.033737 328.376465,238.261414 
	C328.985382,241.402145 328.852448,244.686707 328.827454,248.306000 
	C325.847351,248.811798 323.056030,248.925369 319.859253,249.027954 
z"/>
<path fill="#272727" opacity="1.000000" stroke="none" 
	d="
M222.841476,313.663544 
	C221.869904,320.600250 216.997940,317.150177 213.379272,318.090302 
	C213.379272,313.913483 213.379272,310.186096 213.379272,306.165833 
	C214.979431,306.087769 216.422119,305.939728 217.862091,305.962677 
	C221.273621,306.016968 223.451782,307.052612 221.950134,311.125397 
	C221.752670,311.660950 222.433777,312.520386 222.841476,313.663544 
z"/>
<path fill="#272727" opacity="1.000000" stroke="none" 
	d="
M268.074829,233.450073 
	C268.516266,233.144775 268.868011,233.301300 269.356384,233.594223 
	C269.595215,241.705978 269.688477,249.681442 269.803040,257.656616 
	C269.869293,262.269653 269.070831,267.379547 275.734619,268.688690 
	C271.621552,268.688690 267.508514,268.688690 261.697388,268.688690 
	C268.361450,266.520050 268.006531,262.161774 267.981140,257.875244 
	C267.933777,249.887756 267.978668,241.899704 268.074829,233.450073 
z"/>
<path fill="#10100F" opacity="1.000000" stroke="none" 
	d="
M265.110168,310.742920 
	C265.204834,308.926270 265.298737,307.523529 265.392639,306.120819 
	C265.754211,306.108368 266.115753,306.095947 266.477325,306.083496 
	C266.477325,310.005402 266.477325,313.927277 266.477325,318.932800 
	C263.906647,315.944641 261.782928,313.476013 259.232269,310.511139 
	C258.998627,313.381866 258.812866,315.664307 258.627106,317.946747 
	C258.257996,317.947388 257.888855,317.947998 257.519714,317.948639 
	C257.519714,314.002441 257.519714,310.056244 257.519714,304.784973 
	C259.891327,307.731140 261.656372,309.957855 263.514893,312.103546 
	C263.586578,312.186310 264.557556,311.490112 265.110168,310.742920 
z"/>
<path fill="#10100F" opacity="1.000000" stroke="none" 
	d="
M301.893982,252.542374 
	C301.418549,252.979340 301.024231,252.953537 300.459839,252.826553 
	C300.290558,245.905472 300.245148,239.085144 300.308685,232.265839 
	C300.350708,227.752533 300.126831,223.499588 294.352478,222.264069 
	C298.422607,222.264069 302.492706,222.264069 306.562836,222.264069 
	C301.547821,223.966461 301.983276,228.135513 301.987701,232.118591 
	C301.995056,238.772247 301.980499,245.425949 301.893982,252.542374 
z"/>
<path fill="#2C2C2C" opacity="1.000000" stroke="none" 
	d="
M236.041306,316.369293 
	C235.129578,317.196991 234.408981,317.651459 232.649643,318.761078 
	C234.568054,314.319794 235.917191,311.017365 237.442215,307.798279 
	C237.800232,307.042633 238.797424,306.051208 239.419754,306.104919 
	C240.094376,306.163086 240.884369,307.216583 241.259003,308.008698 
	C242.733887,311.127136 244.065201,314.313477 245.290100,317.110016 
	C242.217773,316.732178 239.225113,316.364136 236.041306,316.369293 
z"/>
<path fill="#272727" opacity="1.000000" stroke="none" 
	d="
M280.048187,306.244202 
	C281.070923,307.525543 281.742340,309.019165 282.504669,310.714996 
	C284.249237,309.119324 286.186005,307.347870 288.122742,305.576416 
	C288.422882,305.843079 288.723022,306.109772 289.023163,306.376465 
	C287.860504,307.958466 286.697845,309.540497 285.432892,311.261688 
	C286.786926,313.350616 288.143036,315.442749 289.499146,317.534882 
	C289.212128,317.795288 288.925110,318.055725 288.638092,318.316162 
	C286.865845,316.726074 285.093628,315.135986 282.975189,313.235260 
	C282.236084,315.130127 281.681702,316.551422 281.127319,317.972748 
	C280.650513,317.971222 280.173706,317.969696 279.696899,317.968170 
	C279.696899,314.130951 279.696899,310.293701 280.048187,306.244202 
z"/>
<path fill="#434342" opacity="1.000000" stroke="none" 
	d="
M26.281515,312.363770 
	C26.341743,311.923431 26.520050,311.901855 26.965755,311.913116 
	C43.624767,311.945984 60.016380,311.945984 76.407990,311.945984 
	C76.410568,312.224854 76.413139,312.503693 76.415710,312.782562 
	C59.743671,312.782562 43.071632,312.782562 26.281515,312.363770 
z"/>
<path fill="#434342" opacity="1.000000" stroke="none" 
	d="
M474.321472,311.863892 
	C474.945435,311.920929 475.121979,311.895020 475.563721,311.905151 
	C475.051117,312.293335 474.274414,312.949646 473.495239,312.952637 
	C458.060852,313.011963 442.626129,312.999878 427.191528,312.979248 
	C426.571136,312.978424 425.951080,312.751282 425.359070,311.780945 
	C441.530762,311.780945 457.702423,311.780945 474.321472,311.863892 
z"/>
<path fill="#10100F" opacity="1.000000" stroke="none" 
	d="
M301.276062,268.917603 
	C301.094391,268.607666 301.246582,268.388916 301.637329,268.114075 
	C301.724152,268.331055 301.635498,268.647980 301.276062,268.917603 
z"/>
</svg>